<svg xmlns="http://www.w3.org/2000/svg" viewBox="0 0 640 280" width="640" height="280" role="img" aria-hidden="true">
  <g stroke-linecap="round" stroke-linejoin="round">
    <line x1="161.92" y1="244.00" x2="161.92" y2="36.00" stroke="#6b7280" stroke-width="1.15" fill="none" vector-effect="non-scaling-stroke"/>
    <line x1="36.00" y1="140.00" x2="604.00" y2="140.00" stroke="#6b7280" stroke-width="1.6" fill="none" vector-effect="non-scaling-stroke"/>
    <path d="M 60.49 136.54 L 62.96 133.78 L 65.43 132.00 L 67.90 130.61 L 70.37 129.46 L 72.84 128.48 L 75.31 127.62 L 77.79 126.86 L 80.26 126.18 L 82.73 125.57 L 85.20 125.02 L 87.67 124.53 L 90.14 124.08 L 92.61 123.66 L 95.08 123.29 L 97.55 122.95 L 100.02 122.64 L 102.49 122.37 L 104.96 122.11 L 107.43 121.88 L 109.90 121.68 L 112.37 121.49 L 114.84 121.32 L 117.31 121.17 L 119.78 121.04 L 122.25 120.92 L 124.72 120.82 L 127.20 120.73 L 129.67 120.65 L 132.14 120.59 L 134.61 120.53 L 137.08 120.49 L 139.55 120.45 L 142.02 120.42 L 144.49 120.39 L 146.96 120.38 L 149.43 120.36 L 151.90 120.36 L 154.37 120.35 L 156.84 120.35 L 159.31 120.35 L 161.78 120.35 L 164.25 120.35 L 166.72 120.34 L 169.19 120.34 L 171.66 120.34 L 174.13 120.33 L 176.61 120.32 L 179.08 120.30 L 181.55 120.28 L 184.02 120.25 L 186.49 120.21 L 188.96 120.17 L 191.43 120.11 L 193.90 120.05 L 196.37 119.98 L 198.84 119.89 L 201.31 119.80 L 203.78 119.69 L 206.25 119.57 L 208.72 119.43 L 211.19 119.28 L 213.66 119.12 L 216.13 118.94 L 218.60 118.75 L 221.07 118.54 L 223.54 118.32 L 226.01 118.08 L 228.49 117.82 L 230.96 117.54 L 233.43 117.25 L 235.90 116.95 L 238.37 116.62 L 240.84 116.28 L 243.31 115.92 L 245.78 115.55 L 248.25 115.16 L 250.72 114.75 L 253.19 114.33 L 255.66 113.89 L 258.13 113.44 L 260.60 112.96 L 263.07 112.48 L 265.54 111.98 L 268.01 111.46 L 270.48 110.93 L 272.95 110.38 L 275.42 109.82 L 277.90 109.25 L 280.37 108.66 L 282.84 108.06 L 285.31 107.44 L 287.78 106.82 L 290.25 106.17 L 292.72 105.52 L 295.19 104.86 L 297.66 104.18 L 300.13 103.49 L 302.60 102.79 L 305.07 102.08 L 307.54 101.35 L 310.01 100.62 L 312.48 99.87 L 314.95 99.12 L 317.42 98.35 L 319.89 97.57 L 322.36 96.79 L 324.83 95.99 L 327.31 95.18 L 329.78 94.37 L 332.25 93.54 L 334.72 92.71 L 337.19 91.86 L 339.66 91.01 L 342.13 90.15 L 344.60 89.28 L 347.07 88.40 L 349.54 87.51 L 352.01 86.62 L 354.48 85.71 L 356.95 84.80 L 359.42 83.88 L 361.89 82.95 L 364.36 82.02 L 366.83 81.08 L 369.30 80.13 L 371.77 79.17 L 374.24 78.20 L 376.71 77.23 L 379.19 76.25 L 381.66 75.26 L 384.13 74.26 L 386.60 73.26 L 389.07 72.25 L 391.54 71.24 L 394.01 70.22 L 396.48 69.19 L 398.95 68.15 L 401.42 67.11 L 403.89 66.06 L 406.36 65.00 L 408.83 63.94 L 411.30 62.87 L 413.77 61.80 L 416.24 60.72 L 418.71 59.63 L 421.18 58.54 L 423.65 57.44 L 426.12 56.33 L 428.60 55.22 L 431.07 54.10 L 433.54 52.98 L 436.01 51.85 L 438.48 50.71 L 440.95 49.57 L 443.42 48.42 L 445.89 47.27 L 448.36 46.11 L 450.83 44.95 L 453.30 43.78 L 455.77 42.60 L 458.24 41.42 L 460.71 40.23 L 463.18 39.04 L 465.65 37.85 L 468.12 36.64 L 470.59 35.43 L 473.06 34.22 L 475.53 33.00 L 478.00 31.78 L 480.48 30.55 L 482.95 29.31 L 485.42 28.07 L 487.89 26.83 L 490.36 25.58 L 492.83 24.32 L 495.30 23.06 L 497.77 21.79 L 500.24 20.52 L 502.71 19.25 L 505.18 17.97 L 507.65 16.68 L 510.12 15.39 L 512.59 14.10 L 515.06 12.79 L 517.53 11.49 L 520.00 10.18 L 522.47 8.86 L 524.94 7.54 L 527.41 6.22 L 529.89 4.89 L 532.36 3.56 L 534.83 2.22 L 537.30 0.87 L 539.77 -0.48 L 542.24 -1.83 L 544.71 -3.19 L 547.18 -4.55 L 549.65 -5.92 L 552.12 -7.29 L 554.59 -8.66 L 557.06 -10.04 L 559.53 -11.43 L 562.00 -12.82 L 564.47 -14.21 L 566.94 -15.61 L 569.41 -17.02 L 571.88 -18.42 L 574.35 -19.84 L 576.82 -21.25 L 579.30 -22.67 L 581.77 -24.10 L 584.24 -25.53 L 586.71 -26.96 L 589.18 -28.40 L 591.65 -29.84 L 594.12 -31.29 L 596.59 -32.74 L 599.06 -34.20 L 601.53 -35.66 L 604.00 -37.12" stroke="#222" stroke-width="1.9" fill="none" vector-effect="non-scaling-stroke"/>
    <path d="M 60.49 143.46 L 62.96 146.22 L 65.43 148.00 L 67.90 149.39 L 70.37 150.54 L 72.84 151.52 L 75.31 152.38 L 77.79 153.14 L 80.26 153.82 L 82.73 154.43 L 85.20 154.98 L 87.67 155.47 L 90.14 155.92 L 92.61 156.34 L 95.08 156.71 L 97.55 157.05 L 100.02 157.36 L 102.49 157.63 L 104.96 157.89 L 107.43 158.12 L 109.90 158.32 L 112.37 158.51 L 114.84 158.68 L 117.31 158.83 L 119.78 158.96 L 122.25 159.08 L 124.72 159.18 L 127.20 159.27 L 129.67 159.35 L 132.14 159.41 L 134.61 159.47 L 137.08 159.51 L 139.55 159.55 L 142.02 159.58 L 144.49 159.61 L 146.96 159.62 L 149.43 159.64 L 151.90 159.64 L 154.37 159.65 L 156.84 159.65 L 159.31 159.65 L 161.78 159.65 L 164.25 159.65 L 166.72 159.66 L 169.19 159.66 L 171.66 159.66 L 174.13 159.67 L 176.61 159.68 L 179.08 159.70 L 181.55 159.72 L 184.02 159.75 L 186.49 159.79 L 188.96 159.83 L 191.43 159.89 L 193.90 159.95 L 196.37 160.02 L 198.84 160.11 L 201.31 160.20 L 203.78 160.31 L 206.25 160.43 L 208.72 160.57 L 211.19 160.72 L 213.66 160.88 L 216.13 161.06 L 218.60 161.25 L 221.07 161.46 L 223.54 161.68 L 226.01 161.92 L 228.49 162.18 L 230.96 162.46 L 233.43 162.75 L 235.90 163.05 L 238.37 163.38 L 240.84 163.72 L 243.31 164.08 L 245.78 164.45 L 248.25 164.84 L 250.72 165.25 L 253.19 165.67 L 255.66 166.11 L 258.13 166.56 L 260.60 167.04 L 263.07 167.52 L 265.54 168.02 L 268.01 168.54 L 270.48 169.07 L 272.95 169.62 L 275.42 170.18 L 277.90 170.75 L 280.37 171.34 L 282.84 171.94 L 285.31 172.56 L 287.78 173.18 L 290.25 173.83 L 292.72 174.48 L 295.19 175.14 L 297.66 175.82 L 300.13 176.51 L 302.60 177.21 L 305.07 177.92 L 307.54 178.65 L 310.01 179.38 L 312.48 180.13 L 314.95 180.88 L 317.42 181.65 L 319.89 182.43 L 322.36 183.21 L 324.83 184.01 L 327.31 184.82 L 329.78 185.63 L 332.25 186.46 L 334.72 187.29 L 337.19 188.14 L 339.66 188.99 L 342.13 189.85 L 344.60 190.72 L 347.07 191.60 L 349.54 192.49 L 352.01 193.38 L 354.48 194.29 L 356.95 195.20 L 359.42 196.12 L 361.89 197.05 L 364.36 197.98 L 366.83 198.92 L 369.30 199.87 L 371.77 200.83 L 374.24 201.80 L 376.71 202.77 L 379.19 203.75 L 381.66 204.74 L 384.13 205.74 L 386.60 206.74 L 389.07 207.75 L 391.54 208.76 L 394.01 209.78 L 396.48 210.81 L 398.95 211.85 L 401.42 212.89 L 403.89 213.94 L 406.36 215.00 L 408.83 216.06 L 411.30 217.13 L 413.77 218.20 L 416.24 219.28 L 418.71 220.37 L 421.18 221.46 L 423.65 222.56 L 426.12 223.67 L 428.60 224.78 L 431.07 225.90 L 433.54 227.02 L 436.01 228.15 L 438.48 229.29 L 440.95 230.43 L 443.42 231.58 L 445.89 232.73 L 448.36 233.89 L 450.83 235.05 L 453.30 236.22 L 455.77 237.40 L 458.24 238.58 L 460.71 239.77 L 463.18 240.96 L 465.65 242.15 L 468.12 243.36 L 470.59 244.57 L 473.06 245.78 L 475.53 247.00 L 478.00 248.22 L 480.48 249.45 L 482.95 250.69 L 485.42 251.93 L 487.89 253.17 L 490.36 254.42 L 492.83 255.68 L 495.30 256.94 L 497.77 258.21 L 500.24 259.48 L 502.71 260.75 L 505.18 262.03 L 507.65 263.32 L 510.12 264.61 L 512.59 265.90 L 515.06 267.21 L 517.53 268.51 L 520.00 269.82 L 522.47 271.14 L 524.94 272.46 L 527.41 273.78 L 529.89 275.11 L 532.36 276.44 L 534.83 277.78 L 537.30 279.13 L 539.77 280.48 L 542.24 281.83 L 544.71 283.19 L 547.18 284.55 L 549.65 285.92 L 552.12 287.29 L 554.59 288.66 L 557.06 290.04 L 559.53 291.43 L 562.00 292.82 L 564.47 294.21 L 566.94 295.61 L 569.41 297.02 L 571.88 298.42 L 574.35 299.84 L 576.82 301.25 L 579.30 302.67 L 581.77 304.10 L 584.24 305.53 L 586.71 306.96 L 589.18 308.40 L 591.65 309.84 L 594.12 311.29 L 596.59 312.74 L 599.06 314.20 L 601.53 315.66 L 604.00 317.12" stroke="#222" stroke-width="1.9" fill="none" vector-effect="non-scaling-stroke"/>
    <path d="M 277.67 114.34 L 481.29 34.48" stroke="#06b6d4" stroke-width="1.6" fill="none" stroke-dasharray="5 4" vector-effect="non-scaling-stroke"/>
    
    <defs>
      <marker id="ecc-arrow-add" markerWidth="5" markerHeight="5" refX="4" refY="2.5" orient="auto">
        <polygon points="0 0, 5 2.5, 0 5" fill="#f97316"/>
      </marker>
    </defs>
    <path d="M 162.12 120.35 L 162.12 159.65"
      stroke="#f97316" stroke-width="1.4" fill="none" stroke-dasharray="3 3" marker-end="url(#ecc-arrow-add)" vector-effect="non-scaling-stroke"/>
    <text x="170.12" y="118.35" font-family="Basis Grotesque Mono Pro, monospace" font-size="9.5" fill="#f97316">reflect</text>
    <circle cx="322.68" cy="96.68" r="4" fill="#111"/>
    <circle cx="429.85" cy="54.65" r="4" fill="#111"/>
    <circle cx="162.12" cy="120.35" r="4" fill="#111"/>
    <circle cx="162.12" cy="159.65" r="4" fill="#111"/>
    <text x="304.68" y="90.68" font-family="Basis Grotesque Mono Pro, monospace" font-size="11" fill="#374151">P</text>
    <text x="435.85" y="68.65" font-family="Basis Grotesque Mono Pro, monospace" font-size="11" fill="#374151">Q</text>
    <text x="170.12" y="110.35" font-family="Basis Grotesque Mono Pro, monospace" font-size="11" fill="#374151">R′</text>
    <text x="170.12" y="173.65" font-family="Basis Grotesque Mono Pro, monospace" font-size="10" fill="#374151">R = P ⊕ Q</text>
    <text x="600.00" y="156.00" font-family="Basis Grotesque Mono Pro, monospace" font-size="13" font-style="italic" font-weight="600" text-anchor="end" fill="#374151">x</text>
    <text x="169.92" y="40.00" font-family="Basis Grotesque Mono Pro, monospace" font-size="13" font-style="italic" font-weight="600" fill="#374151">y</text>
  </g></svg>